<?xml version="1.0" encoding="UTF-8"?>
<svg id="Layer_1" data-name="Layer 1" xmlns="http://www.w3.org/2000/svg" viewBox="0 0 444.05 287.78">
  <defs>
    <style>
      .cls-1 {
        fill: #fff;
      }
    </style>
  </defs>
  <g>
    <path class="cls-1" d="M357.41,163.23c-12.37,0-24.61-3.63-35.01-10.58-7.78-5.2-14.43-12.2-19.22-20.24-1.65-2.76-.74-6.34,2.03-7.99,2.76-1.65,6.34-.74,7.99,2.03,3.9,6.56,9.33,12.27,15.68,16.51,11.82,7.9,26.57,10.53,40.45,7.22,13.38-3.19,25.11-11.84,32.19-23.73,1.65-2.76,5.22-3.67,7.99-2.03,2.76,1.65,3.67,5.22,2.03,7.99-8.68,14.57-23.07,25.18-39.5,29.1-4.82,1.15-9.73,1.72-14.62,1.72Z"/>
    <path class="cls-1" d="M411.61,108.81c-3.22,0-5.83-2.61-5.83-5.83v-26.59c-5.21-4.68-27.56-19.05-48.7-31.85-20.21,12.78-41.54,27.12-46.48,31.77v26.65c0,3.22-2.61,5.83-5.83,5.83s-5.83-2.61-5.83-5.83v-28.52c0-3.44,2.06-5.82,10.52-12.08,4.41-3.27,10.53-7.51,18.2-12.62,12.97-8.64,26.12-16.9,26.25-16.98l3.03-1.9,3.07,1.84c.14.08,13.87,8.34,27.43,16.98,8.01,5.1,14.4,9.34,19.01,12.61,8.83,6.26,10.99,8.65,10.99,12.15v28.54c0,3.22-2.61,5.83-5.83,5.83Z"/>
    <rect class="cls-1" x="326.32" y="77.96" width="24.32" height="40.38" rx="6.25" ry="6.25"/>
    <rect class="cls-1" x="364.06" y="77.96" width="24.32" height="40.38" rx="6.25" ry="6.25"/>
  </g>
  <path class="cls-1" d="M39.06,140.41c-2.96-2.96-4.45-6.56-4.45-10.8V63.09c0-4.23,1.47-7.82,4.42-10.77,2.94-2.94,6.51-4.42,10.7-4.42s7.67,1.5,10.67,4.51c.97.98,1.78,2.02,2.41,3.14.63,1.12,1.13,2.36,1.49,3.72.36,1.36.54,2.67.54,3.94v18.99h29.48v-18.99c0-1.99.39-3.94,1.18-5.84.78-1.91,1.87-3.56,3.27-4.96,3.01-3.01,6.57-4.51,10.67-4.51,1.95,0,3.87.37,5.78,1.11,1.91.74,3.54,1.83,4.89,3.27.97.97,1.78,2.02,2.41,3.14.63,1.12,1.13,2.36,1.49,3.72.36,1.36.54,2.67.54,3.94v66.51c0,1.99-.39,3.94-1.18,5.84-.78,1.91-1.87,3.56-3.27,4.96-2.92,2.92-6.44,4.38-10.55,4.38-1.99,0-3.85-.35-5.59-1.05-1.74-.7-3.43-1.81-5.08-3.34-2.96-2.84-4.45-6.44-4.45-10.8v-21.09h-29.79v21.09c0,4.41-1.46,8-4.38,10.8-1.44,1.48-3.08,2.58-4.92,3.3-1.84.72-3.72,1.08-5.62,1.08-4.19,0-7.75-1.46-10.67-4.38Z"/>
  <path class="cls-1" d="M206.9,103.43c0,4.24-.91,7.22-2.73,8.96-1.82,1.74-4.85,2.6-9.09,2.6h-33.86c.17.25.95,1.08,2.35,2.48,1.23.93,2.4,1.62,3.53,2.06,1.12.44,2.64.8,4.54,1.08,1.91.28,4.21.41,6.92.41,2.63-.13,5.95-.74,9.97-1.84,3.09-.76,5.27-1.14,6.54-1.14,3.43,0,6.17,1,8.23,2.99,2.05,1.99,3.08,4.45,3.08,7.37,0,1.06-.09,1.88-.25,2.48-.47,1.61-1.2,3.05-2.19,4.32-1,1.27-2.31,2.4-3.94,3.4-1.63,1-3.93,2.02-6.89,3.08-3.64,1.1-7.37,1.88-11.18,2.35-2.67.34-5.53.51-8.58.51-6.31,0-12.1-.92-17.38-2.76-5.27-1.84-9.79-4.46-13.56-7.85-3.77-3.39-6.63-7.37-8.58-11.94-1.95-4.57-2.92-9.57-2.92-14.99.13-4.79,1.2-9.37,3.21-13.75,2.01-4.38,4.72-8.15,8.13-11.31,3.41-3.15,7.46-5.64,12.17-7.46,4.7-1.82,9.78-2.73,15.25-2.73,7.24.13,13.7,1.8,19.38,5.02,3.47,2.03,6.53,4.54,9.18,7.53,2.65,2.99,4.72,6.14,6.23,9.47,1.5,3.33,2.32,6.55,2.45,9.69ZM161.48,100.83h15.5c0-.51-.04-.93-.13-1.27-.64-4.19-3.58-6.29-8.83-6.29-3.09.76-5.19,2.9-6.29,6.42-.17.51-.25.89-.25,1.14Z"/>
  <path class="cls-1" d="M214.08,73c2.08-.97,4.19-1.46,6.35-1.46,1.91,0,3.74.42,5.5,1.27,1.76.85,3.37,2.15,4.83,3.91,1.46,1.76,2.62,3.87,3.46,6.32l7.31,20.39,6.61-20.01c.55-1.82,1.42-3.77,2.6-5.84,1.14-1.95,2.71-3.44,4.7-4.48,1.99-1.04,4.11-1.56,6.35-1.56,4.32,0,8.01,1.65,11.05,4.96,2.37,2.5,3.56,5.59,3.56,9.28,0,2.2-.49,4.36-1.46,6.48l-32.02,73.63c-3.09,7.03-7.56,10.55-13.4,10.55-1.23,0-2.73-.3-4.51-.89-3.09-.97-5.49-2.59-7.21-4.86-1.71-2.27-2.57-4.86-2.57-7.78,0-1.95.49-3.94,1.46-5.97l9.97-20.58-19.88-45.1c-.68-1.52-1.02-3.22-1.02-5.08,0-2.8.74-5.39,2.22-7.78,1.48-2.39,3.51-4.18,6.1-5.37Z"/>
  <g>
    <path class="cls-1" d="M103.51,254.92c-4.15,0-7.71-1.5-10.67-4.51-2.96-3.01-4.45-6.58-4.45-10.74v-65.69c0-2.75.68-5.34,2.03-7.75,1.36-2.41,3.22-4.29,5.59-5.62,2.37-1.33,4.91-2,7.62-2h35.51c3.64,0,6.82,1.36,9.53,4.07,2.5,2.5,3.75,5.57,3.75,9.21,0,3.43-1.33,6.61-4,9.53-2.84,2.5-5.97,3.75-9.4,3.75h-20.39v9.34h17.28c2.46,0,4.65.6,6.58,1.81,1.93,1.21,3.46,2.83,4.61,4.86s1.72,4.24,1.72,6.61c-.08,2.46-.72,4.65-1.91,6.58-1.19,1.93-2.77,3.46-4.76,4.61-1.99,1.14-4.11,1.72-6.35,1.72h-17.15v19c0,4.15-1.48,7.73-4.45,10.74-2.97,3.01-6.52,4.51-10.67,4.51Z"/>
    <path class="cls-1" d="M158.27,250.21c-2.88-2.88-4.32-6.35-4.32-10.42v-75.34c0-2.54.66-4.91,1.97-7.12,1.31-2.2,3.09-3.95,5.34-5.24,2.24-1.29,4.72-1.94,7.43-1.94,2.58.04,4.96.73,7.15,2.06,2.18,1.33,3.9,3.1,5.15,5.3,1.25,2.2,1.87,4.6,1.87,7.18v74.96c0,4.15-1.38,7.67-4.13,10.55-2.97,2.75-6.4,4.13-10.29,4.13s-7.28-1.38-10.16-4.13Z"/>
    <path class="cls-1" d="M216.91,181.67c2.75-.55,4.89-.83,6.42-.83,6.44,0,11.8,2.1,16.07,6.29v.38l12.01-6.42c1.02-.68,2.22-1.02,3.62-1.02,2.07,0,3.81.78,5.21,2.35,3.56,3.56,5.34,7.94,5.34,13.15v44.09c0,4.28-1.36,7.77-4.07,10.48-2.71,2.71-6.12,4.07-10.23,4.07l-11.88-6.73v.64c-3.94,4.15-9.25,6.23-15.95,6.23-2.2,0-4.68-.25-7.43-.76-3.94-.76-7.77-2.42-11.5-4.99-3.73-2.56-6.97-5.92-9.72-10.07-1.86-3.13-3.26-6.46-4.19-9.97-.93-3.51-1.4-7.54-1.4-12.07.3-5.84,1.7-11.24,4.23-16.2,2.52-4.96,5.83-9.05,9.94-12.29,4.11-3.24,8.62-5.35,13.53-6.32ZM217.99,218.32c0,2.97.87,5.57,2.61,7.81,1.91,2.33,4.28,3.49,7.11,3.49,1.69,0,3.3-.45,4.83-1.37,1.53-.91,2.73-2.23,3.62-3.97.76-1.27,1.21-2.52,1.33-3.75.08-.97.13-2.33.13-4.07-.63-4.36-2.63-7.31-5.97-8.83-1.44-.68-2.8-1.02-4.07-1.02-2.33,0-4.34.85-6.03,2.54-1.7,1.69-2.8,3.96-3.3,6.8-.04.42-.08.79-.1,1.11-.02.32-.07.73-.16,1.24Z"/>
    <path class="cls-1" d="M270.02,185.54c2.5-2.24,5.46-3.37,8.89-3.37h1.27v-6.29c0-3.98,1.44-7.47,4.32-10.48,2.79-2.8,6.16-4.19,10.1-4.19s7.41,1.44,10.29,4.32c2.88,3.13,4.32,6.69,4.32,10.67v5.97h1.65c3.3,0,6.16,1.16,8.58,3.49,2.46,2.46,3.69,5.36,3.69,8.7,0,.93-.13,1.88-.38,2.86-.25.97-.65,1.92-1.17,2.83-.53.91-1.13,1.75-1.81,2.51-2.5,2.5-5.46,3.81-8.89,3.94h-1.78v33.03c0,4.15-1.44,7.67-4.32,10.55-2.71,2.84-6.1,4.26-10.16,4.26s-7.39-1.42-10.23-4.26c-2.88-3.01-4.32-6.56-4.32-10.67v-33.16h-1.02c-3.64,0-6.78-1.31-9.4-3.94-2.24-2.24-3.37-4.93-3.37-8.07,0-3.43,1.25-6.33,3.75-8.7Z"/>
  </g>
</svg>
